<!DOCTYPE svg PUBLIC "-//W3C//DTD SVG 1.1//EN" "http://www.w3.org/Graphics/SVG/1.1/DTD/svg11.dtd">

<!-- Uploaded to: SVG Repo, www.svgrepo.com, Transformed by: SVG Repo Mixer Tools -->
<svg width="128px" height="128px" viewBox="0 0 48.00 48.00" xmlns="http://www.w3.org/2000/svg" fill="#ffffff" stroke="#ffffff" stroke-width="0.00048000000000000007">

<g id="SVGRepo_bgCarrier" stroke-width="0"/>

<g id="SVGRepo_tracerCarrier" stroke-linecap="round" stroke-linejoin="round" stroke="#CCCCCC" stroke-width="0.672"/>

<g id="SVGRepo_iconCarrier"> <title>drag-arrow</title> <g id="Layer_2" data-name="Layer 2"> <g id="invisible_box" data-name="invisible box"> <rect width="48" height="48" fill="none"/> </g> <g id="icons_Q2" data-name="icons Q2"> <path d="M45.4,22.6l-5.9-6a2.1,2.1,0,0,0-2.7-.2,1.9,1.9,0,0,0-.2,3L39.2,22H26V8.8l2.6,2.6a1.9,1.9,0,0,0,3-.2,2.1,2.1,0,0,0-.2-2.7l-6-5.9a1.9,1.9,0,0,0-2.8,0l-6,5.9a2.1,2.1,0,0,0-.2,2.7,1.9,1.9,0,0,0,3,.2L22,8.8V22H8.8l2.6-2.6a1.9,1.9,0,0,0-.2-3,2.1,2.1,0,0,0-2.7.2l-5.9,6a1.9,1.9,0,0,0,0,2.8l5.9,6a2.1,2.1,0,0,0,2.7.2,1.9,1.9,0,0,0,.2-3L8.8,26H22V39.2l-2.6-2.6a1.9,1.9,0,0,0-3,.2,2.1,2.1,0,0,0,.2,2.7l6,5.9a1.9,1.9,0,0,0,2.8,0l6-5.9a2.1,2.1,0,0,0,.2-2.7,1.9,1.9,0,0,0-3-.2L26,39.2V26H39.2l-2.6,2.6a1.9,1.9,0,0,0,.2,3,2.1,2.1,0,0,0,2.7-.2l5.9-6A1.9,1.9,0,0,0,45.4,22.6Z"/> </g> </g> </g>

</svg>