<?xml version="1.0" encoding="UTF-8" standalone="no"?>
<!DOCTYPE svg PUBLIC "-//W3C//DTD SVG 1.1//EN" "http://www.w3.org/Graphics/SVG/1.1/DTD/svg11.dtd">
<!-- Created with Vectornator (http://vectornator.io/) -->
<svg width="32px" height="32px" stroke-miterlimit="10" style="fill-rule:nonzero;clip-rule:evenodd;stroke-linecap:round;stroke-linejoin:round;" version="1.1" viewBox="0 0 18 18" xml:space="preserve" xmlns="http://www.w3.org/2000/svg" xmlns:vectornator="http://vectornator.io" xmlns:xlink="http://www.w3.org/1999/xlink">
<defs/>
<g id="SVGRepo_iconCarrier" vectornator:layerName="SVGRepo_iconCarrier">
<path d="M16.2144 14.2274C16.2143 13.823 15.9706 13.4585 15.597 13.3037C15.2234 13.149 14.7933 13.2345 14.5074 13.5204L13.5074 14.5204C13.1284 14.9128 13.1338 15.5365 13.5195 15.9222C13.9053 16.308 14.529 16.3134 14.9214 15.9344L15.9214 14.9344C16.1089 14.7469 16.2143 14.4926 16.2144 14.2274ZM16.2144 8.58941C16.2143 8.18501 15.9706 7.82047 15.597 7.66573C15.2234 7.51098 14.7934 7.5965 14.5074 7.88241L7.86936 14.5204C7.6094 14.7715 7.50514 15.1433 7.59666 15.4929C7.68817 15.8425 7.96122 16.1156 8.31085 16.2071C8.66048 16.2986 9.03228 16.1944 9.28335 15.9344L15.9214 9.29641C16.1096 9.10818 16.2151 8.85264 16.2144 8.58641L16.2144 8.58941ZM16.2144 2.74941C16.2143 2.34501 15.9706 1.98047 15.597 1.82573C15.2234 1.67098 14.7934 1.7565 14.5074 2.04241L2.03036 14.5204C1.65138 14.9128 1.6568 15.5365 2.04254 15.9222C2.42827 16.308 3.05198 16.3134 3.44435 15.9344L15.9214 3.45741C16.1092 3.26967 16.2146 3.01495 16.2144 2.74941Z" fill="#ffffff" fill-rule="nonzero" opacity="1" stroke="none"/>
</g>
</svg>
