<!DOCTYPE svg PUBLIC "-//W3C//DTD SVG 1.1//EN" "http://www.w3.org/Graphics/SVG/1.1/DTD/svg11.dtd">

<!-- Uploaded to: SVG Repo, www.svgrepo.com, Transformed by: SVG Repo Mixer Tools -->
<svg fill="#ffffff" xmlns="http://www.w3.org/2000/svg" width="32px" height="32px" viewBox="-7.8 -7.8 67.60 67.60" enable-background="new 0 0 52 52" xml:space="preserve" stroke="#ffffff" stroke-width="0.0005200000000000001">

<g id="SVGRepo_bgCarrier" stroke-width="0"/>

<g id="SVGRepo_tracerCarrier" stroke-linecap="round" stroke-linejoin="round"/>

<g id="SVGRepo_iconCarrier"> <path d="M44,30.5c0,0,0.1,1.6-1.5,1.6H15.2c-0.9,0-1.3-1.2-0.7-1.8l5.6-5.6c0.6-0.6,0.6-1.5,0-2.1L18,20.5 c-0.6-0.6-1.5-0.6-2.1,0L2.4,34c-0.6,0.6-0.6,1.5,0,2.1L16,49.6c0.6,0.6,1.5,0.6,2.1,0l2.1-2.1c0.6-0.6,0.6-1.5,0-2.1l-5.6-5.6 c-0.6-0.7-0.2-1.7,0.7-1.7h33.2c0.7,0,1.5-0.8,1.5-1.6v-33C50,2.8,49.3,2,48.5,2h-3C44.7,2,44,2.8,44,3.5C44,3.5,44,30.5,44,30.5z"/> </g>

</svg>
