<!DOCTYPE svg PUBLIC "-//W3C//DTD SVG 1.1//EN" "http://www.w3.org/Graphics/SVG/1.1/DTD/svg11.dtd">

<!-- Uploaded to: SVG Repo, www.svgrepo.com, Transformed by: SVG Repo Mixer Tools -->
<svg fill="#cfd0d1" width="24px" height="24px" viewBox="-6.94 -4 39.716 39.716" xmlns="http://www.w3.org/2000/svg" stroke="#cfd0d1">

<g id="SVGRepo_bgCarrier" stroke-width="0"/>

<g id="SVGRepo_tracerCarrier" stroke-linecap="round" stroke-linejoin="round"/>

<g id="SVGRepo_iconCarrier"> <g transform="translate(-355.957 -579)"> <path d="M376.515,610.716H361.231a2.361,2.361,0,0,1-2.358-2.359V584.1a1,1,0,0,1,2,0v24.255a.36.36,0,0,0,.358.359h15.284a.36.36,0,0,0,.358-.359V584.1a1,1,0,0,1,2,0v24.255A2.361,2.361,0,0,1,376.515,610.716Z"/> <path d="M365.457,604.917a1,1,0,0,1-1-1v-14a1,1,0,0,1,2,0v14A1,1,0,0,1,365.457,604.917Z"/> <path d="M372.29,604.917a1,1,0,0,1-1-1v-14a1,1,0,0,1,2,0v14A1,1,0,0,1,372.29,604.917Z"/> <path d="M380.79,585.1H356.957a1,1,0,0,1,0-2H380.79a1,1,0,0,1,0,2Z"/> <path d="M372.79,581h-7.917a1,1,0,1,1,0-2h7.917a1,1,0,0,1,0,2Z"/> </g> </g>

</svg>