<?xml version="1.0" encoding="UTF-8" standalone="no" ?>
<!DOCTYPE svg PUBLIC "-//W3C//DTD SVG 1.1//EN" "http://www.w3.org/Graphics/SVG/1.1/DTD/svg11.dtd">
<svg xmlns="http://www.w3.org/2000/svg" xmlns:xlink="http://www.w3.org/1999/xlink" version="1.1" width="16" height="16" viewBox="0 0 160 160" xml:space="preserve">
<desc>Created with Fabric.js 4.6.0</desc>
<defs>
</defs>
<g transform="matrix(0.38 0 0 2.31 30.1 80.1)" id="U0AxCCy818-zpw6Sj1wgx"  >
<path style="stroke: rgb(252,252,252); stroke-width: 0; stroke-dasharray: none; stroke-linecap: butt; stroke-dashoffset: 0; stroke-linejoin: miter; stroke-miterlimit: 4; fill: rgb(252,252,252); fill-rule: nonzero; opacity: 1;" vector-effect="non-scaling-stroke"  transform=" translate(0, 0)" d="M -25.90674 -25.90674 L 25.906730000000003 -25.90674 L 25.906730000000003 25.906730000000003 L -25.90674 25.906730000000003 z" stroke-linecap="round" />
</g>
<g transform="matrix(0.38 0 0 2.31 130.16 80.16)" id="Fk99q4JIKmYlhDOqh0LgG"  >
<path style="stroke: rgb(252,252,252); stroke-width: 0; stroke-dasharray: none; stroke-linecap: butt; stroke-dashoffset: 0; stroke-linejoin: miter; stroke-miterlimit: 4; fill: rgb(252,252,252); fill-rule: nonzero; opacity: 1;" vector-effect="non-scaling-stroke"  transform=" translate(0, 0)" d="M -25.90674 -25.90674 L 25.906730000000003 -25.90674 L 25.906730000000003 25.906730000000003 L -25.90674 25.906730000000003 z" stroke-linecap="round" />
</g>
<g transform="matrix(2.31 0 0 0.39 80.16 130)" id="hFU3S9bPJNcNlU9IMxuNN"  >
<path style="stroke: rgb(252,252,252); stroke-width: 0; stroke-dasharray: none; stroke-linecap: butt; stroke-dashoffset: 0; stroke-linejoin: miter; stroke-miterlimit: 4; fill: rgb(252,252,252); fill-rule: nonzero; opacity: 1;" vector-effect="non-scaling-stroke"  transform=" translate(0, 0)" d="M -25.90674 -25.90674 L 25.906730000000003 -25.90674 L 25.906730000000003 25.906730000000003 L -25.90674 25.906730000000003 z" stroke-linecap="round" />
</g>
<g transform="matrix(2.31 0 0 0.39 79.84 29.9)" id="VZP0bjzHIGD81nLgnewq2"  >
<path style="stroke: rgb(252,252,252); stroke-width: 0; stroke-dasharray: none; stroke-linecap: butt; stroke-dashoffset: 0; stroke-linejoin: miter; stroke-miterlimit: 4; fill: rgb(252,252,252); fill-rule: nonzero; opacity: 1;" vector-effect="non-scaling-stroke"  transform=" translate(0, 0)" d="M -25.90674 -25.90674 L 25.906730000000003 -25.90674 L 25.906730000000003 25.906730000000003 L -25.90674 25.906730000000003 z" stroke-linecap="round" />
</g>
</svg>