<svg fill="#cfd0d1" width="24px" height="24px" viewBox="-1.6 -1.6 19.20 19.20" xmlns="http://www.w3.org/2000/svg">
    <g id="SVGRepo_bgCarrier" stroke-width="0"></g>
    <g id="SVGRepo_tracerCarrier" stroke-linecap="round" stroke-linejoin="round"></g>
    <g id="SVGRepo_iconCarrier">
        <path
            d="M0 8c0 4.418 3.59 8 8 8 4.418 0 8-3.59 8-8 0-4.418-3.59-8-8-8-4.418 0-8 3.59-8 8zm2 0c0-3.307 2.686-6 6-6 3.307 0 6 2.686 6 6 0 3.307-2.686 6-6 6-3.307 0-6-2.686-6-6zm5 1h5V7H9V4H7v5z"
            fill-rule="evenodd"></path>
    </g>
</svg>
