<svg viewBox="0 0 24 24" fill="none" xmlns="http://www.w3.org/2000/svg">
    <g id="SVGRepo_bgCarrier" stroke-width="0"></g>
    <g id="SVGRepo_tracerCarrier" stroke-linecap="round" stroke-linejoin="round"></g>
    <g id="SVGRepo_iconCarrier">
        <path fill-rule="evenodd" clip-rule="evenodd"
            d="M22 10L22 9.93418C22.0001 9.04769 22.0001 8.28387 21.9179 7.67221C21.8297 7.0167 21.631 6.38835 21.1213 5.87869C20.6117 5.36902 19.9833 5.17028 19.3278 5.08215C18.7161 4.99991 17.9523 4.99995 17.0658 5L17 5.00001L6.93418 5C6.04769 4.99995 5.28388 4.99991 4.67222 5.08215C4.0167 5.17028 3.38835 5.36902 2.87869 5.87868C2.36902 6.38835 2.17028 7.0167 2.08215 7.67221C1.99991 8.28387 1.99995 9.04769 2 9.93418V9.9342V14.0658V14.0658C1.99995 14.9523 1.99991 15.7161 2.08215 16.3278C2.17028 16.9833 2.36902 17.6117 2.87869 18.1213C3.38835 18.631 4.0167 18.8297 4.67222 18.9179C5.28388 19.0001 6.04769 19.0001 6.93418 19H17.0658C17.9523 19.0001 18.7161 19.0001 19.3278 18.9179C19.9833 18.8297 20.6117 18.631 21.1213 18.1213C21.631 17.6117 21.8297 16.9833 21.9179 16.3278C22.0001 15.7161 22.0001 14.9523 22 14.0658L22 10ZM14 15C14.5523 15 15 14.5523 15 14C15 13.4477 14.5523 13 14 13H10C9.44772 13 9 13.4477 9 14C9 14.5523 9.44772 15 10 15H14ZM17.5 9C18.0523 9 18.5 9.44772 18.5 10V10.01C18.5 10.5623 18.0523 11.01 17.5 11.01C16.9477 11.01 16.5 10.5623 16.5 10.01V10C16.5 9.44772 16.9477 9 17.5 9ZM15 9.99C15 9.43772 14.5523 8.99 14 8.99C13.4477 8.99 13 9.43772 13 9.99V10C13 10.5523 13.4477 11 14 11C14.5523 11 15 10.5523 15 10V9.99ZM17.5 12.99C18.0523 12.99 18.5 13.4377 18.5 13.99V14C18.5 14.5523 18.0523 15 17.5 15C16.9477 15 16.5 14.5523 16.5 14V13.99C16.5 13.4377 16.9477 12.99 17.5 12.99ZM7.5 14C7.5 13.4477 7.05229 13 6.5 13C5.94772 13 5.5 13.4477 5.5 14V14.01C5.5 14.5623 5.94772 15.01 6.5 15.01C7.05229 15.01 7.5 14.5623 7.5 14.01V14ZM10 9C10.5523 9 11 9.44772 11 10V10.01C11 10.5623 10.5523 11.01 10 11.01C9.44772 11.01 9 10.5623 9 10.01V10C9 9.44772 9.44772 9 10 9ZM7.5 10C7.5 9.44772 7.05229 9 6.5 9C5.94772 9 5.5 9.44772 5.5 10V10.01C5.5 10.5623 5.94772 11.01 6.5 11.01C7.05229 11.01 7.5 10.5623 7.5 10.01V10Z"
            fill="#cfd0d1"></path>
    </g>
</svg>