<?xml version="1.0" encoding="UTF-8" standalone="no"?>
<!DOCTYPE svg PUBLIC "-//W3C//DTD SVG 1.1//EN" "http://www.w3.org/Graphics/SVG/1.1/DTD/svg11.dtd">
<!-- Created with Vectornator (http://vectornator.io/) -->
<svg height="100%" stroke-miterlimit="10" style="fill-rule:nonzero;clip-rule:evenodd;stroke-linecap:round;stroke-linejoin:round;" version="1.1" viewBox="0 0 512 512" width="100%" xml:space="preserve" xmlns="http://www.w3.org/2000/svg" xmlns:vectornator="http://vectornator.io" xmlns:xlink="http://www.w3.org/1999/xlink">
<defs>
<path d="M78.6372 264.735L139.342 44.5235L459.206 45.5892L389.109 263.19L78.6372 264.735Z" id="Fill"/>
</defs>
<g id="图层-2" vectornator:layerName="图层 2">
<path d="M0 0L512 0L512 512L0 512L0 0Z" fill="#478cbf" fill-rule="nonzero" opacity="1" stroke="none" vectornator:layerName="长方形 4"/>
</g>
<g id="图层-1" vectornator:layerName="图层 1">
<g opacity="1">
<use fill="#478cbf" fill-rule="nonzero" stroke="none" xlink:href="#Fill"/>
<mask height="220.212" id="StrokeMask" maskUnits="userSpaceOnUse" width="380.569" x="78.6372" y="44.5235">
<rect fill="#000000" height="220.212" stroke="none" width="380.569" x="78.6372" y="44.5235"/>
<use fill="#ffffff" fill-rule="evenodd" stroke="none" xlink:href="#Fill"/>
</mask>
<use fill="none" mask="url(#StrokeMask)" stroke="#ffffff" stroke-linecap="butt" stroke-linejoin="miter" stroke-width="60" xlink:href="#Fill"/>
</g>
<path d="M229.891 266.654C231.828 264.177 218.37 242.519 220.63 240.48C222.442 238.844 247.135 257.79 249.114 256.443C252.197 254.345 249.038 231.287 252.413 229.909C255.736 228.551 268.109 253.653 271.582 253.015C276.859 252.047 283.021 228.024 288.263 228.781C292.516 229.396 287.421 254.697 291.378 256.495C294.114 257.738 316.072 234.87 318.567 236.696C321.621 238.932 308.408 265.782 310.691 268.58C323.902 284.773 319.362 303.216 304.973 321.62C288.099 343.204 257.612 348.397 236.879 333.219C216.145 318.04 213.017 288.238 229.891 266.654Z" fill="#ffffff" fill-rule="nonzero" opacity="1" stroke="#478cbf" stroke-linecap="butt" stroke-linejoin="miter" stroke-width="8"/>
<path d="M73.5951 243.897C40.3754 235.104 50.2275 296.435 80.0691 306.613C92.3236 310.793 154.435 321.768 181.637 337.332C195.509 345.269 187.644 368.316 185.141 375.17C182.469 382.484 173.867 401.273 150.162 406.311C124.07 411.856 84.5598 401.403 73.382 396.752C63.9879 392.842 67.7167 451.378 72.7168 456.046C82.0707 464.776 137.282 465.493 181.93 463.32C225.448 461.202 227.232 403.857 264.785 403.333C285.04 403.051 309.943 401.305 316.067 408.513C331.898 427.144 299.954 467.823 315.414 467.474C337.118 466.984 374.108 467.477 374.108 467.477C374.108 467.477 385.778 455.386 389.874 430.9C393.969 406.415 393.91 386.546 390.488 369.534C386.006 347.25 298.321 345.372 278.96 345.427C268.776 345.456 233.057 349.793 219.907 317.792C214.983 305.809 213.961 301.983 216.883 287.594C220.32 270.672 230.493 259.169 227.398 259.66C184.391 266.486 117.357 255.48 73.5951 243.897Z" fill="#ffffff" fill-rule="nonzero" opacity="1" stroke="#478cbf" stroke-linecap="butt" stroke-linejoin="miter" stroke-width="8"/>
<path d="M313.794 266.658C311.539 271.238 320.142 279.678 320.035 289.379C319.921 299.638 313.692 312.301 309.736 317.886C305.122 324.399 309.5 330.672 315.154 330.78C338.818 331.232 376.929 316.129 396.221 307.535C434.181 290.624 458.655 238.94 423.225 234.033C418.517 233.381 397.473 251.601 370.075 259.473C346.488 266.25 315.889 262.405 313.794 266.658Z" fill="#ffffff" fill-rule="nonzero" opacity="1" stroke="#478cbf" stroke-linecap="butt" stroke-linejoin="miter" stroke-width="8"/>
<path d="M237.026 95.9347L336.678 154.629L215.794 203.182" fill="none" opacity="1" stroke="#ffffff" stroke-linecap="butt" stroke-linejoin="miter" stroke-width="30"/>
</g>
</svg>
